<svg id="Layer_1" enable-background="new 0 0 512 512" height="512" viewBox="0 0 512 512" width="512" xmlns="http://www.w3.org/2000/svg"><g><g><g><path d="m320.88 476.507h-129.76l10.18-31.29 9.7-29.791h90z" fill="#aec9d6"/><path d="m320.88 476.507h-129.76l10.18-31.29h63.57c11.43 0 19.65-10.97 16.43-21.93l-2.3-7.86h22z" fill="#8fb2bc"/><path d="m512 110.166v253.091l-27.44 2.14-228.56 17.86-256-20v-253.091l256-20 228.56 17.861z" fill="#55d7ff"/><path d="m512 110.166v253.091l-27.44 2.14v-257.37z" fill="#57bbff"/><path d="m512 363.257v46.87c0 7.07-5.73 12.8-12.8 12.8h-486.4c-7.07 0-12.8-5.73-12.8-12.8v-46.87z" fill="#466175"/><path d="m512 63.297v46.87h-512v-46.87c0-7.07 5.73-12.8 12.8-12.8h486.4c7.07 0 12.8 5.73 12.8 12.8z" fill="#466175"/><g fill="#2d4859"><path d="m512 63.297v46.87h-27.44v-59.67h14.64c7.07 0 12.8 5.73 12.8 12.8z"/><path d="m484.56 363.257h27.44v46.87c0 7.07-5.73 12.8-12.8 12.8h-486.4c-7.07 0-12.8-5.73-12.8-12.8v-17.04h463.9c11.41 0 20.66-9.25 20.66-20.66z"/></g><path d="m361 480.057c0 6.32-5.13 11.45-11.46 11.45h-187.08c-3.16 0-6.03-1.28-8.1-3.36-2.08-2.07-3.36-4.93-3.36-8.09 0-1.26.13-2.48.37-3.67 1.69-8.48 9.19-14.87 18.17-14.87h172.92c5.12 0 9.76 2.07 13.11 5.43s5.43 7.989 5.43 13.11z" fill="#466175"/><path d="m355.57 466.947c3.35 3.36 5.43 7.99 5.43 13.11 0 6.32-5.13 11.45-11.46 11.45h-187.08c-3.16 0-6.03-1.28-8.1-3.36-2.08-2.07-3.36-4.93-3.36-8.09 0-1.26.13-2.48.37-3.67h175.67c6.33 0 11.46-5.13 11.46-11.45 0-1.17-.11-2.31-.32-3.42h4.28c5.12 0 9.76 2.07 13.11 5.43z" fill="#2d4859"/></g><path d="m356 50.493c0 8.29-3.36 15.79-8.79 21.21-5.43 5.43-12.93 8.79-21.21 8.79h-140c-16.57 0-30-13.43-30-30 0-8.29 3.36-15.79 8.79-21.21 5.43-5.43 12.93-8.79 21.21-8.79h140c16.57 0 30 13.431 30 30z" fill="#aec9d6"/><path d="m356 50.493c0 8.29-3.36 15.79-8.79 21.21-5.43 5.43-12.93 8.79-21.21 8.79h-140c-16.57 0-30-13.43-30-30h140c8.28 0 15.78-3.36 21.21-8.79 5.43-5.42 8.79-12.92 8.79-21.21 16.57 0 30 13.431 30 30z" fill="#8fb2bc"/><ellipse cx="256" cy="50.493" fill="#d9f9f8" rx="30" ry="30" transform="matrix(.16 -.987 .987 .16 165.152 295.1)"/><path d="m226 50.493h60c0 16.57-13.43 30-30 30s-30-13.429-30-30z" fill="#c1eaf4"/></g><g><path d="m387.49 363.254h-263.48c1.05-5.04 2.9-9.79 5.42-14.12 6.5-11.23 17.48-19.61 30.73-22.61l72.46-14.74 47.4.28 71.31 14.47c.21.05.43.1.64.16 18.05 4.33 31.78 18.69 35.52 36.56z" fill="#fff683"/><path d="m278.908 284.256c-1.074 9.422-.795 18.151 1.03 27.373l.086.435c-1.361 1.531-2.777 3.077-4.249 4.637-5.459 5.817-12.286 8.985-19.324 8.966-7.047.018-13.882-3.157-19.346-8.984-1.555-1.649-3.049-3.282-4.482-4.9 1.882-9.321 2.292-18.008 1.205-27.543z" fill="#ffc7b6"/><path d="m312.66 248.124c0 13.42-11.4 29.44-33.9 47.65-6.31 5.13-14.2 7.92-22.33 7.91-8.14.01-16.04-2.79-22.36-7.93-22.48-18.19-33.88-34.22-33.88-47.63 0-1.42.05-2.85.17-4.22.43-4.42.62-22.99.55-43.05-.1-28.24 20.93-51.6 48.17-55.18 2.41-.33 4.86-.49 7.35-.49 30.72 0 55.62 24.95 55.51 55.67-.06 20.04.12 38.6.55 43.02.12 1.4.17 2.83.17 4.25z" fill="#ffdecc"/><path d="m312.66 248.124c0 13.42-11.4 29.44-33.9 47.65 13.04-17.46 19.22-37.45 19.22-47.65 0-1.42-.06-2.85-.18-4.25-.43-4.42-.61-22.98-.55-43.02.1-28.24-20.93-51.6-48.17-55.18 2.41-.33 4.86-.49 7.35-.49 30.72 0 55.62 24.95 55.51 55.67-.06 20.04.12 38.6.55 43.02.12 1.4.17 2.83.17 4.25z" fill="#ffc7b6"/></g><path d="m387.49 363.254h-263.48c1.05-5.04 2.9-9.79 5.42-14.12h204.34c14.55 0 19.35-9.15 18.2-22.44 18.05 4.33 31.78 18.69 35.52 36.56z" fill="#ffe45c"/></g></svg>